<svg width="491" height="130" viewBox="0 0 491 130" fill="none" xmlns="http://www.w3.org/2000/svg">
<path d="M131.75 65.55C130.183 65.55 128.65 65.3667 127.15 65C125.65 64.6333 124.283 64.05 123.05 63.25C121.816 62.45 120.833 61.4167 120.1 60.15C119.4 58.8833 119.05 57.35 119.05 55.55H125.1C125.1 55.7167 125.166 56.05 125.3 56.55C125.433 57.0167 125.733 57.5333 126.2 58.1C126.666 58.6333 127.383 59.1 128.35 59.5C129.316 59.8667 130.6 60.05 132.2 60.05C133.666 60.05 134.866 59.8167 135.8 59.35C136.766 58.85 137.266 58.1333 137.3 57.2C137.3 56.4 136.966 55.7667 136.3 55.3C135.666 54.8333 134.816 54.45 133.75 54.15C132.683 53.8167 131.5 53.5167 130.2 53.25C128.933 52.9833 127.666 52.65 126.4 52.25C125.166 51.85 124.033 51.3167 123 50.65C121.966 49.9833 121.15 49.1333 120.55 48.1C119.983 47.0333 119.75 45.6833 119.85 44.05C120.016 41.65 121.166 39.7667 123.3 38.4C125.433 37.0333 128.333 36.35 132 36.35C134.033 36.35 135.933 36.7167 137.7 37.45C139.466 38.15 140.9 39.2333 142 40.7C143.1 42.1667 143.65 44.0167 143.65 46.25H137.8C137.8 45.05 137.433 44.15 136.7 43.55C135.966 42.95 135.083 42.55 134.05 42.35C133.05 42.1167 132.15 42 131.35 42C129.883 42 128.666 42.2333 127.7 42.7C126.766 43.1333 126.3 43.8333 126.3 44.8C126.3 45.6333 126.616 46.3 127.25 46.8C127.916 47.3 128.8 47.7 129.9 48C131 48.3 132.183 48.5833 133.45 48.85C134.75 49.0833 136.033 49.3833 137.3 49.75C138.6 50.1167 139.766 50.6333 140.8 51.3C141.833 51.9333 142.65 52.7833 143.25 53.85C143.85 54.8833 144.1 56.2333 144 57.9C143.833 60.3 142.633 62.1833 140.4 63.55C138.166 64.8833 135.283 65.55 131.75 65.55ZM167.417 65V36.85H178.317C181.983 36.85 184.85 37.4833 186.917 38.75C189.017 39.9833 190.067 42.15 190.067 45.25C190.067 47.65 189.5 49.55 188.367 50.95C187.267 52.35 185.733 53.05 183.767 53.05C184.8 53.05 185.583 53.3 186.117 53.8C186.65 54.2667 187.017 54.85 187.217 55.55C187.45 56.25 187.617 56.9833 187.717 57.75C187.85 58.4833 188.017 59.15 188.217 59.75C188.417 60.3167 188.75 60.7167 189.217 60.95C189.717 61.15 190.45 61.05 191.417 60.65V64C190.65 64.6667 189.767 65.1 188.767 65.3C187.767 65.5333 186.8 65.4833 185.867 65.15C184.933 64.8167 184.15 64.1667 183.517 63.2C182.917 62.2 182.617 60.8333 182.617 59.1C182.617 57.9667 182.533 57.0167 182.367 56.25C182.233 55.4833 181.883 54.8833 181.317 54.45C180.75 54.0167 179.85 53.7333 178.617 53.6C177.383 53.4667 175.667 53.4667 173.467 53.6V65H167.417ZM173.467 49.3H177.767C179.333 49.3 180.617 49.25 181.617 49.15C182.65 49.05 183.417 48.7667 183.917 48.3C184.417 47.8 184.667 46.95 184.667 45.75C184.667 44.3833 184.367 43.4333 183.767 42.9C183.167 42.3333 182.267 42 181.067 41.9C179.9 41.8 178.467 41.75 176.767 41.75H173.467V49.3ZM228.037 59.85V65H214.687V59.85H218.387V42H214.687V36.85H228.037V42H224.387V59.85H228.037ZM263.91 65.55C262.343 65.55 260.81 65.3667 259.31 65C257.81 64.6333 256.443 64.05 255.21 63.25C253.977 62.45 252.993 61.4167 252.26 60.15C251.56 58.8833 251.21 57.35 251.21 55.55H257.26C257.26 55.7167 257.327 56.05 257.46 56.55C257.593 57.0167 257.893 57.5333 258.36 58.1C258.827 58.6333 259.543 59.1 260.51 59.5C261.477 59.8667 262.76 60.05 264.36 60.05C265.827 60.05 267.027 59.8167 267.96 59.35C268.927 58.85 269.427 58.1333 269.46 57.2C269.46 56.4 269.127 55.7667 268.46 55.3C267.827 54.8333 266.977 54.45 265.91 54.15C264.843 53.8167 263.66 53.5167 262.36 53.25C261.093 52.9833 259.827 52.65 258.56 52.25C257.327 51.85 256.193 51.3167 255.16 50.65C254.127 49.9833 253.31 49.1333 252.71 48.1C252.143 47.0333 251.91 45.6833 252.01 44.05C252.177 41.65 253.327 39.7667 255.46 38.4C257.593 37.0333 260.493 36.35 264.16 36.35C266.193 36.35 268.093 36.7167 269.86 37.45C271.627 38.15 273.06 39.2333 274.16 40.7C275.26 42.1667 275.81 44.0167 275.81 46.25H269.96C269.96 45.05 269.593 44.15 268.86 43.55C268.127 42.95 267.243 42.55 266.21 42.35C265.21 42.1167 264.31 42 263.51 42C262.043 42 260.827 42.2333 259.86 42.7C258.927 43.1333 258.46 43.8333 258.46 44.8C258.46 45.6333 258.777 46.3 259.41 46.8C260.077 47.3 260.96 47.7 262.06 48C263.16 48.3 264.343 48.5833 265.61 48.85C266.91 49.0833 268.193 49.3833 269.46 49.75C270.76 50.1167 271.927 50.6333 272.96 51.3C273.993 51.9333 274.81 52.7833 275.41 53.85C276.01 54.8833 276.26 56.2333 276.16 57.9C275.993 60.3 274.793 62.1833 272.56 63.55C270.327 64.8833 267.443 65.55 263.91 65.55ZM313.377 59.85V65H300.027V59.85H303.727V42H300.027V36.85H313.377V42H309.727V59.85H313.377ZM349.8 65.55C347.033 65.55 344.616 65 342.55 63.9C340.483 62.8 338.883 61.1833 337.75 59.05C336.65 56.8833 336.133 54.2333 336.2 51.1C336.266 47.9 336.933 45.2167 338.2 43.05C339.466 40.85 341.166 39.1833 343.3 38.05C345.466 36.9167 347.95 36.35 350.75 36.35C354.716 36.35 357.75 37.1833 359.85 38.85C361.95 40.5167 363.366 42.9333 364.1 46.1L358.25 47C357.95 45.7333 357.4 44.7333 356.6 44C355.833 43.2667 354.933 42.75 353.9 42.45C352.866 42.15 351.816 42 350.75 42C347.75 42 345.566 42.8 344.2 44.4C342.866 46 342.183 48.0833 342.15 50.65C342.15 53.5833 342.95 55.8167 344.55 57.35C346.183 58.8833 348.5 59.65 351.5 59.65C353.1 59.65 354.616 59.3167 356.05 58.65C357.516 57.9833 358.516 56.8 359.05 55.1H353.7V50.75H364.65V65H360.6L359.25 60.75H359.15C358.583 61.95 357.516 63.05 355.95 64.05C354.383 65.05 352.333 65.55 349.8 65.55ZM388.195 65V36.85H398.695L404.095 62.45H404.195L409.495 36.85H419.945V65H413.695L414.145 39.45H414.045L408.495 65H399.695L394.195 39.45H394.095L394.445 65H388.195ZM442.145 65L450.695 36.85H460.645L469.445 65H462.995L460.895 57.5H450.695L448.645 65H442.145ZM455.795 39.35L451.995 52.85H459.595L455.795 39.35Z" fill="#1E6382"/>
<path d="M101.424 81V75.85H123.424V81H115.424V104H109.374V81H101.424ZM138.838 99.15H154.138V104H132.938V75.85H153.638V81H138.838V87.3H150.038V92.2H138.838V99.15ZM176.024 104.5C173.357 104.5 170.94 103.967 168.774 102.9C166.607 101.8 164.89 100.183 163.624 98.05C162.357 95.9167 161.74 93.2667 161.774 90.1C161.774 86.9667 162.407 84.3 163.674 82.1C164.94 79.9 166.657 78.2333 168.824 77.1C170.99 75.9333 173.44 75.35 176.174 75.35C178.874 75.35 181.174 75.8333 183.074 76.8C184.974 77.7667 186.457 79.0667 187.524 80.7C188.624 82.3333 189.34 84.1333 189.674 86.1H183.424C183.224 84.7 182.724 83.65 181.924 82.95C181.124 82.2167 180.19 81.7167 179.124 81.45C178.09 81.1833 177.107 81.05 176.174 81.05C173.407 81.05 171.307 81.8 169.874 83.3C168.44 84.8 167.724 86.9167 167.724 89.65C167.724 92.5833 168.407 94.85 169.774 96.45C171.174 98.05 173.29 98.85 176.124 98.85C177.09 98.85 178.107 98.7 179.174 98.4C180.24 98.1 181.174 97.5667 181.974 96.8C182.807 96 183.324 94.9 183.524 93.5H189.824C189.457 95.5333 188.724 97.3833 187.624 99.05C186.524 100.683 185.007 102 183.074 103C181.14 104 178.79 104.5 176.024 104.5ZM204.947 104H198.897V75.85H204.947V87.45H217.047V75.85H223.047V104H217.047V92.05H204.947V104ZM252.587 75.85H258.887V104H247.337L239.887 78.5H239.787V104H233.537V75.85H244.237L252.487 101.35H252.587V75.85ZM281.695 104.7C277.095 104.7 273.579 103.383 271.145 100.75C268.712 98.0833 267.495 94.5 267.495 90C267.495 87.0333 268.012 84.4667 269.045 82.3C270.112 80.1 271.695 78.4 273.795 77.2C275.895 75.9667 278.529 75.35 281.695 75.35C286.329 75.35 289.845 76.6833 292.245 79.35C294.645 81.9833 295.845 85.5333 295.845 90C295.845 92.9 295.312 95.4667 294.245 97.7C293.179 99.9 291.595 101.617 289.495 102.85C287.395 104.083 284.795 104.7 281.695 104.7ZM281.645 98.85C283.479 98.85 285.012 98.4667 286.245 97.7C287.479 96.9 288.395 95.8333 288.995 94.5C289.595 93.1667 289.895 91.6667 289.895 90C289.895 88.3333 289.595 86.8167 288.995 85.45C288.395 84.0833 287.479 83 286.245 82.2C285.012 81.4 283.479 81 281.645 81C278.945 81 276.895 81.85 275.495 83.55C274.095 85.2167 273.395 87.3667 273.395 90C273.395 91.6333 273.695 93.1167 274.295 94.45C274.895 95.7833 275.795 96.85 276.995 97.65C278.229 98.45 279.779 98.85 281.645 98.85ZM305.557 104V75.85H311.607V98.85H324.607V104H305.557ZM345.943 104.7C341.343 104.7 337.827 103.383 335.393 100.75C332.96 98.0833 331.743 94.5 331.743 90C331.743 87.0333 332.26 84.4667 333.293 82.3C334.36 80.1 335.943 78.4 338.043 77.2C340.143 75.9667 342.777 75.35 345.943 75.35C350.577 75.35 354.093 76.6833 356.493 79.35C358.893 81.9833 360.093 85.5333 360.093 90C360.093 92.9 359.56 95.4667 358.493 97.7C357.427 99.9 355.843 101.617 353.743 102.85C351.643 104.083 349.043 104.7 345.943 104.7ZM345.893 98.85C347.727 98.85 349.26 98.4667 350.493 97.7C351.727 96.9 352.643 95.8333 353.243 94.5C353.843 93.1667 354.143 91.6667 354.143 90C354.143 88.3333 353.843 86.8167 353.243 85.45C352.643 84.0833 351.727 83 350.493 82.2C349.26 81.4 347.727 81 345.893 81C343.193 81 341.143 81.85 339.743 83.55C338.343 85.2167 337.643 87.3667 337.643 90C337.643 91.6333 337.943 93.1167 338.543 94.45C339.143 95.7833 340.043 96.85 341.243 97.65C342.477 98.45 344.027 98.85 345.893 98.85ZM381.205 104.55C378.438 104.55 376.022 104 373.955 102.9C371.888 101.8 370.288 100.183 369.155 98.05C368.055 95.8833 367.538 93.2333 367.605 90.1C367.672 86.9 368.338 84.2167 369.605 82.05C370.872 79.85 372.572 78.1833 374.705 77.05C376.872 75.9167 379.355 75.35 382.155 75.35C386.122 75.35 389.155 76.1833 391.255 77.85C393.355 79.5167 394.772 81.9333 395.505 85.1L389.655 86C389.355 84.7333 388.805 83.7333 388.005 83C387.238 82.2667 386.338 81.75 385.305 81.45C384.272 81.15 383.222 81 382.155 81C379.155 81 376.972 81.8 375.605 83.4C374.272 85 373.588 87.0833 373.555 89.65C373.555 92.5833 374.355 94.8167 375.955 96.35C377.588 97.8833 379.905 98.65 382.905 98.65C384.505 98.65 386.022 98.3167 387.455 97.65C388.922 96.9833 389.922 95.8 390.455 94.1H385.105V89.75H396.055V104H392.005L390.655 99.75H390.555C389.988 100.95 388.922 102.05 387.355 103.05C385.788 104.05 383.738 104.55 381.205 104.55ZM419.6 98.85V104H406.25V98.85H409.95V81H406.25V75.85H419.6V81H415.95V98.85H419.6ZM436.523 99.15H451.823V104H430.623V75.85H451.323V81H436.523V87.3H447.723V92.2H436.523V99.15ZM472.559 104.55C470.993 104.55 469.459 104.367 467.959 104C466.459 103.633 465.093 103.05 463.859 102.25C462.626 101.45 461.643 100.417 460.909 99.15C460.209 97.8833 459.859 96.35 459.859 94.55H465.909C465.909 94.7167 465.976 95.05 466.109 95.55C466.243 96.0167 466.543 96.5333 467.009 97.1C467.476 97.6333 468.193 98.1 469.159 98.5C470.126 98.8667 471.409 99.05 473.009 99.05C474.476 99.05 475.676 98.8167 476.609 98.35C477.576 97.85 478.076 97.1333 478.109 96.2C478.109 95.4 477.776 94.7667 477.109 94.3C476.476 93.8333 475.626 93.45 474.559 93.15C473.493 92.8167 472.309 92.5167 471.009 92.25C469.743 91.9833 468.476 91.65 467.209 91.25C465.976 90.85 464.843 90.3167 463.809 89.65C462.776 88.9833 461.959 88.1333 461.359 87.1C460.793 86.0333 460.559 84.6833 460.659 83.05C460.826 80.65 461.976 78.7667 464.109 77.4C466.243 76.0333 469.143 75.35 472.809 75.35C474.843 75.35 476.743 75.7167 478.509 76.45C480.276 77.15 481.709 78.2333 482.809 79.7C483.909 81.1667 484.459 83.0167 484.459 85.25H478.609C478.609 84.05 478.243 83.15 477.509 82.55C476.776 81.95 475.893 81.55 474.859 81.35C473.859 81.1167 472.959 81 472.159 81C470.693 81 469.476 81.2333 468.509 81.7C467.576 82.1333 467.109 82.8333 467.109 83.8C467.109 84.6333 467.426 85.3 468.059 85.8C468.726 86.3 469.609 86.7 470.709 87C471.809 87.3 472.993 87.5833 474.259 87.85C475.559 88.0833 476.843 88.3833 478.109 88.75C479.409 89.1167 480.576 89.6333 481.609 90.3C482.643 90.9333 483.459 91.7833 484.059 92.85C484.659 93.8833 484.909 95.2333 484.809 96.9C484.643 99.3 483.443 101.183 481.209 102.55C478.976 103.883 476.093 104.55 472.559 104.55Z" fill="#E33F3F"/>
<path d="M40 36.2683L29.7857 27L1 54.3415L29.7857 84L40 74.2683L20.9643 54.3415L40 36.2683Z" fill="#1E6382" stroke="#1E6382"/>
<path d="M13.2683 70L4 80.2143L31.3415 109L61 80.2143L51.2683 70L31.3415 89.0357L13.2683 70Z" fill="#1E6382" stroke="#1E6382"/>
<path d="M45.3404 98.2633L55.4955 107.72L84.7591 80.5323L56.1827 50.3186L45.7985 59.9958L64.692 80.292L45.3404 98.2633Z" fill="#E33F3F" stroke="#E33F3F"/>
<path d="M74.5691 65L84 54.7857L56.1789 26L26 54.7857L35.9024 65L56.1789 45.9643L74.5691 65Z" fill="#E33F3F" stroke="#E33F3F"/>
</svg>
